<?xml version="1.0" standalone="no"?>
<!DOCTYPE svg PUBLIC "-//W3C//DTD SVG 20010904//EN"
 "http://www.w3.org/TR/2001/REC-SVG-20010904/DTD/svg10.dtd">
<svg version="1.0" xmlns="http://www.w3.org/2000/svg"
 width="503.000000pt" height="503.000000pt" viewBox="0 0 503.000000 503.000000"
 preserveAspectRatio="xMidYMid meet">
<metadata>
Created by potrace 1.11, written by Peter Selinger 2001-2013
</metadata>
<g transform="translate(0.000000,503.000000) scale(0.100000,-0.100000)"
fill="#000000" stroke="none">
<path d="M2309 4285 c-98 -14 -196 -38 -284 -67 -157 -53 -239 -113 -285 -210
-20 -42 -42 -68 -81 -97 -274 -206 -470 -507 -545 -833 -10 -44 -23 -78 -30
-78 -28 0 -143 42 -168 61 -36 28 -33 53 15 167 105 250 86 427 -63 576 -69
69 -185 138 -261 157 -94 22 -177 -38 -177 -129 0 -24 6 -53 14 -65 21 -34 39
-124 33 -168 -3 -24 -26 -70 -60 -121 -80 -122 -138 -247 -152 -330 -3 -18 -8
-42 -12 -53 -10 -33 -11 -182 -2 -232 15 -82 49 -176 85 -236 19 -32 34 -61
34 -65 0 -4 -45 -7 -101 -7 -122 0 -158 -12 -187 -64 -26 -45 -28 -133 -6
-218 16 -61 84 -202 121 -253 75 -100 185 -184 334 -254 84 -40 268 -106 294
-106 6 0 10 -51 10 -132 0 -133 3 -156 31 -277 37 -162 134 -283 282 -352 75
-36 131 -47 209 -43 l59 3 23 -45 c13 -24 45 -64 71 -88 90 -85 189 -118 327
-110 49 3 122 6 164 8 42 2 81 5 85 8 12 7 870 1 964 -6 200 -15 235 -15 294
-2 109 26 218 105 263 192 l20 39 79 1 c100 1 207 36 276 92 72 58 95 83 129
135 75 115 118 346 99 525 -3 28 -4 52 -1 53 49 6 216 66 292 105 210 106 387
307 448 509 41 137 32 212 -32 257 -27 19 -44 22 -139 22 -59 0 -108 1 -108 3
0 2 10 20 23 41 41 66 74 145 90 217 28 121 16 328 -23 397 -6 10 -10 25 -10
33 0 23 -108 226 -130 245 -3 3 -16 22 -29 43 -33 55 -33 116 0 208 15 42 26
85 24 95 -2 11 -4 27 -4 36 -2 30 -51 77 -94 89 -53 14 -116 -4 -219 -63 -231
-133 -304 -342 -211 -602 14 -39 29 -75 33 -81 20 -26 39 -106 31 -128 -8 -19
-61 -56 -86 -58 -2 -1 -26 -7 -52 -15 -26 -8 -50 -11 -53 -7 -4 5 -15 44 -24
88 -43 191 -150 404 -291 580 -43 54 -103 113 -176 176 -35 29 -65 57 -67 62
-2 4 -9 7 -16 7 -19 0 -52 41 -66 81 -14 40 -78 114 -125 146 -67 45 -314 122
-441 138 -100 13 -360 12 -445 0z m-342 -787 c47 -52 95 -57 184 -17 72 31
180 70 189 69 5 -1 93 10 123 16 14 2 16 0 8 -9 -16 -20 -22 -73 -12 -117 9
-39 5 -46 -23 -41 -37 7 -156 -72 -215 -142 -14 -16 -30 -35 -37 -41 -19 -19
-83 -123 -94 -152 -10 -26 -11 -26 -83 -20 -39 4 -90 9 -113 12 -22 2 -60 6
-85 8 -24 2 -78 8 -119 12 -41 5 -90 9 -107 9 -41 0 -41 8 -4 89 64 141 181
290 304 388 l52 40 7 -42 c4 -24 15 -52 25 -62z m1271 -3 c59 -55 131 -146
180 -230 44 -76 86 -175 74 -176 -4 0 -20 -2 -37 -3 -16 -2 -64 -7 -105 -10
-41 -4 -91 -9 -110 -11 -19 -2 -73 -6 -120 -10 -47 -4 -99 -8 -116 -11 -32 -4
-33 -2 -59 116 -20 93 -87 212 -183 328 -44 52 -41 63 10 43 31 -12 62 -24 68
-25 3 -1 35 -16 71 -34 81 -41 114 -44 161 -19 39 21 63 61 67 114 1 18 4 16
99 -72z"/>
</g>
</svg>
